<svg xmlns="http://www.w3.org/2000/svg" width="1000" height="1000" viewBox="0 0 1000 1000" fill="none"><metadata><rdf:RDF xmlns:rdf="http://www.w3.org/1999/02/22-rdf-syntax-ns#" xmlns:dc="http://purl.org/dc/elements/1.1/"><rdf:Description><dc:creator>RealFaviconGenerator</dc:creator><dc:source>https://realfavicongenerator.net</dc:source></rdf:Description></rdf:RDF></metadata><g clip-path="url(#clip0_16_6)">
<rect width="1000" height="1000" rx="211" fill="#EFEE77"></rect>
<path d="M270.588 198.878H526.059L720.824 380.996V504.937V810.995H270.588V198.878Z" fill="white"></path>
<path d="M220 709.313V290.442C220 213.331 282.568 150.819 359.75 150.819H505.505C533.299 150.821 559.956 161.862 579.611 181.498L748.293 350.028C767.949 369.664 778.997 396.298 779 424.066V709.313C779 786.426 716.433 848.936 639.25 848.936H359.75C282.569 848.936 220 786.427 220 709.313ZM621.781 639.501C641.077 639.501 656.719 655.129 656.719 674.407C656.719 693.685 641.077 709.313 621.781 709.313H394.688C375.392 709.313 359.75 693.685 359.75 674.407C359.75 655.129 375.392 639.501 394.688 639.501H621.781ZM499.5 499.878C518.795 499.878 534.438 515.506 534.438 534.784C534.438 554.062 518.795 569.689 499.5 569.689H394.688C375.392 569.689 359.75 554.062 359.75 534.784C359.75 515.506 375.392 499.878 394.688 499.878H499.5ZM569.375 325.348C569.375 344.627 585.016 360.254 604.313 360.254H659.721L569.375 269.99V325.348ZM289.875 709.313C289.875 747.87 321.159 779.125 359.75 779.125H639.25C677.843 779.125 709.125 747.871 709.125 709.313V430.066H604.313C546.425 430.066 499.5 383.182 499.5 325.348V220.631H359.75C321.159 220.631 289.875 251.887 289.875 290.442V709.313Z" fill="black"></path>
<path d="M220 709.313V290.442C220 213.331 282.568 150.819 359.75 150.819H505.505C533.299 150.821 559.956 161.862 579.611 181.498L748.293 350.028C767.949 369.664 778.997 396.298 779 424.066V709.313C779 786.426 716.433 848.936 639.25 848.936H359.75C282.569 848.936 220 786.427 220 709.313ZM621.781 639.501C641.077 639.501 656.719 655.129 656.719 674.407C656.719 693.685 641.077 709.313 621.781 709.313H394.688C375.392 709.313 359.75 693.685 359.75 674.407C359.75 655.129 375.392 639.501 394.688 639.501H621.781ZM499.5 499.878C518.795 499.878 534.438 515.506 534.438 534.784C534.438 554.062 518.795 569.689 499.5 569.689H394.688C375.392 569.689 359.75 554.062 359.75 534.784C359.75 515.506 375.392 499.878 394.688 499.878H499.5ZM569.375 325.348C569.375 344.627 585.016 360.254 604.313 360.254H659.721L569.375 269.99V325.348ZM289.875 709.313C289.875 747.87 321.159 779.125 359.75 779.125H639.25C677.843 779.125 709.125 747.871 709.125 709.313V430.066H604.313C546.425 430.066 499.5 383.182 499.5 325.348V220.631H359.75C321.159 220.631 289.875 251.887 289.875 290.442V709.313Z" fill="black" fill-opacity="0.2"></path>
</g><defs>
<clipPath id="clip0_16_6">
<rect width="1000" height="1000" fill="white"></rect>
</clipPath>
</defs></svg>